<svg width="1280" height="720" viewBox="0 0 1280 720" fill="none" xmlns="http://www.w3.org/2000/svg">
<rect width="1280" height="720" fill="#E0E0E0"/>
<path d="M-1919 -390C-1919 -391.105 -1918.1 -392 -1917 -392H1591C1592.1 -392 1593 -391.105 1593 -390V3443C1593 3444.1 1592.1 3445 1591 3445H-1917C-1918.1 3445 -1919 3444.1 -1919 3443V-390Z" fill="#464646"/>
<path d="M-1917 -392V-391H1591V-392V-393H-1917V-392ZM1593 -390H1592V3443H1593H1594V-390H1593ZM1591 3445V3444H-1917V3445V3446H1591V3445ZM-1919 3443H-1918V-390H-1919H-1920V3443H-1919ZM-1917 3445V3444C-1917.55 3444 -1918 3443.55 -1918 3443H-1919H-1920C-1920 3444.66 -1918.66 3446 -1917 3446V3445ZM1593 3443H1592C1592 3443.55 1591.55 3444 1591 3444V3445V3446C1592.66 3446 1594 3444.66 1594 3443H1593ZM1591 -392V-391C1591.55 -391 1592 -390.552 1592 -390H1593H1594C1594 -391.657 1592.66 -393 1591 -393V-392ZM-1917 -392V-393C-1918.66 -393 -1920 -391.657 -1920 -390H-1919H-1918C-1918 -390.552 -1917.55 -391 -1917 -391V-392Z" fill="black" fill-opacity="0.1"/>
<g clip-path="url(#clip0_0_1)">
<rect width="1280" height="720" fill="white"/>
<g filter="url(#filter0_d_0_1)">
<rect y="-1" width="1280" height="62" fill="#D9D9D9"/>
</g>
<g filter="url(#filter1_d_0_1)">
<rect x="30" y="91" width="602.5" height="292" rx="10" fill="#F5F5F5"/>
</g>
<g filter="url(#filter2_d_0_1)">
<rect x="30" y="398" width="602.5" height="292" rx="10" fill="#F5F5F5"/>
</g>
<g filter="url(#filter3_d_0_1)">
<rect x="647.5" y="91" width="602.5" height="292" rx="10" fill="#F5F5F5"/>
</g>
<g filter="url(#filter4_d_0_1)">
<rect x="647.5" y="398" width="602.5" height="292" rx="10" fill="#F5F5F5"/>
</g>
<path d="M41.6667 42.7917V34.0417H47.5V42.7917H54.7917V31.125H59.1667L44.5833 18L30 31.125H34.375V42.7917H41.6667Z" fill="#1E1E1E"/>
</g>
<defs>
<filter id="filter0_d_0_1" x="-4" y="-1" width="1288" height="70" filterUnits="userSpaceOnUse" color-interpolation-filters="sRGB">
<feFlood flood-opacity="0" result="BackgroundImageFix"/>
<feColorMatrix in="SourceAlpha" type="matrix" values="0 0 0 0 0 0 0 0 0 0 0 0 0 0 0 0 0 0 127 0" result="hardAlpha"/>
<feOffset dy="4"/>
<feGaussianBlur stdDeviation="2"/>
<feComposite in2="hardAlpha" operator="out"/>
<feColorMatrix type="matrix" values="0 0 0 0 0 0 0 0 0 0 0 0 0 0 0 0 0 0 0.25 0"/>
<feBlend mode="normal" in2="BackgroundImageFix" result="effect1_dropShadow_0_1"/>
<feBlend mode="normal" in="SourceGraphic" in2="effect1_dropShadow_0_1" result="shape"/>
</filter>
<filter id="filter1_d_0_1" x="26" y="91" width="610.5" height="300" filterUnits="userSpaceOnUse" color-interpolation-filters="sRGB">
<feFlood flood-opacity="0" result="BackgroundImageFix"/>
<feColorMatrix in="SourceAlpha" type="matrix" values="0 0 0 0 0 0 0 0 0 0 0 0 0 0 0 0 0 0 127 0" result="hardAlpha"/>
<feOffset dy="4"/>
<feGaussianBlur stdDeviation="2"/>
<feComposite in2="hardAlpha" operator="out"/>
<feColorMatrix type="matrix" values="0 0 0 0 0 0 0 0 0 0 0 0 0 0 0 0 0 0 0.25 0"/>
<feBlend mode="normal" in2="BackgroundImageFix" result="effect1_dropShadow_0_1"/>
<feBlend mode="normal" in="SourceGraphic" in2="effect1_dropShadow_0_1" result="shape"/>
</filter>
<filter id="filter2_d_0_1" x="26" y="398" width="610.5" height="300" filterUnits="userSpaceOnUse" color-interpolation-filters="sRGB">
<feFlood flood-opacity="0" result="BackgroundImageFix"/>
<feColorMatrix in="SourceAlpha" type="matrix" values="0 0 0 0 0 0 0 0 0 0 0 0 0 0 0 0 0 0 127 0" result="hardAlpha"/>
<feOffset dy="4"/>
<feGaussianBlur stdDeviation="2"/>
<feComposite in2="hardAlpha" operator="out"/>
<feColorMatrix type="matrix" values="0 0 0 0 0 0 0 0 0 0 0 0 0 0 0 0 0 0 0.25 0"/>
<feBlend mode="normal" in2="BackgroundImageFix" result="effect1_dropShadow_0_1"/>
<feBlend mode="normal" in="SourceGraphic" in2="effect1_dropShadow_0_1" result="shape"/>
</filter>
<filter id="filter3_d_0_1" x="643.5" y="91" width="610.5" height="300" filterUnits="userSpaceOnUse" color-interpolation-filters="sRGB">
<feFlood flood-opacity="0" result="BackgroundImageFix"/>
<feColorMatrix in="SourceAlpha" type="matrix" values="0 0 0 0 0 0 0 0 0 0 0 0 0 0 0 0 0 0 127 0" result="hardAlpha"/>
<feOffset dy="4"/>
<feGaussianBlur stdDeviation="2"/>
<feComposite in2="hardAlpha" operator="out"/>
<feColorMatrix type="matrix" values="0 0 0 0 0 0 0 0 0 0 0 0 0 0 0 0 0 0 0.25 0"/>
<feBlend mode="normal" in2="BackgroundImageFix" result="effect1_dropShadow_0_1"/>
<feBlend mode="normal" in="SourceGraphic" in2="effect1_dropShadow_0_1" result="shape"/>
</filter>
<filter id="filter4_d_0_1" x="643.5" y="398" width="610.5" height="300" filterUnits="userSpaceOnUse" color-interpolation-filters="sRGB">
<feFlood flood-opacity="0" result="BackgroundImageFix"/>
<feColorMatrix in="SourceAlpha" type="matrix" values="0 0 0 0 0 0 0 0 0 0 0 0 0 0 0 0 0 0 127 0" result="hardAlpha"/>
<feOffset dy="4"/>
<feGaussianBlur stdDeviation="2"/>
<feComposite in2="hardAlpha" operator="out"/>
<feColorMatrix type="matrix" values="0 0 0 0 0 0 0 0 0 0 0 0 0 0 0 0 0 0 0.25 0"/>
<feBlend mode="normal" in2="BackgroundImageFix" result="effect1_dropShadow_0_1"/>
<feBlend mode="normal" in="SourceGraphic" in2="effect1_dropShadow_0_1" result="shape"/>
</filter>
<clipPath id="clip0_0_1">
<rect width="1280" height="720" fill="white"/>
</clipPath>
</defs>
</svg>
